<?xml version="1.0" standalone="no"?>
<!DOCTYPE svg PUBLIC "-//W3C//DTD SVG 20010904//EN"
 "http://www.w3.org/TR/2001/REC-SVG-20010904/DTD/svg10.dtd">
<svg version="1.0" xmlns="http://www.w3.org/2000/svg"
 width="8142.000000pt" height="3434.000000pt" viewBox="0 0 8142.000000 3434.000000"
 preserveAspectRatio="xMidYMid meet">

<g transform="translate(0.000000,3434.000000) scale(0.100000,-0.100000)"
fill="#000000" stroke="none">
<path d="M67085 22353 c-881 -73 -1641 -417 -2235 -1013 -475 -475 -801 -1065
-969 -1753 -244 -996 -108 -2012 366 -2732 259 -392 583 -680 1003 -889 430
-214 831 -296 1380 -283 343 8 594 45 896 132 754 217 1376 647 1843 1274 325
438 558 972 670 1536 206 1036 10 2038 -537 2745 -88 114 -286 315 -397 404
-413 333 -899 525 -1455 575 -104 10 -467 12 -565 4z m369 -1188 c490 -87 858
-420 1040 -942 86 -248 120 -485 120 -838 -1 -364 -31 -630 -106 -930 -196
-782 -639 -1319 -1253 -1520 -317 -103 -729 -109 -1025 -14 -470 150 -796 561
-914 1151 -79 391 -70 904 24 1368 152 755 523 1305 1066 1578 154 77 383 142
574 161 123 13 361 5 474 -14z"/>
<path d="M55785 22339 c-328 -30 -711 -125 -1012 -250 -954 -397 -1688 -1219
-2006 -2249 -83 -267 -137 -543 -169 -850 -16 -161 -16 -622 0 -765 49 -422
148 -768 317 -1106 263 -525 655 -917 1170 -1170 254 -125 529 -207 835 -251
143 -20 729 -17 933 5 691 75 1262 276 1748 616 l83 58 167 1339 c93 736 168
1351 168 1367 l1 27 -1090 0 -1090 0 0 -22 c-1 -13 -22 -205 -49 -428 -36
-302 -45 -415 -39 -445 14 -61 51 -110 105 -136 47 -24 54 -24 377 -27 l328
-3 -5 -27 c-2 -15 -31 -255 -63 -534 l-59 -508 -40 -16 c-391 -159 -861 -205
-1214 -118 -744 184 -1159 951 -1092 2019 39 617 199 1113 492 1530 93 131
319 354 449 442 117 78 273 160 389 203 342 126 833 129 1201 7 127 -42 331
-144 520 -261 226 -140 310 -165 439 -132 145 37 192 81 506 471 120 149 225
278 233 287 13 16 5 27 -94 125 -228 227 -442 381 -709 513 -281 139 -590 230
-935 276 -147 19 -640 28 -795 13z"/>
<path d="M59200 22271 c0 -6 -178 -1466 -395 -3245 -217 -1779 -395 -3244
-395 -3255 0 -21 0 -21 725 -21 l724 0 6 33 c3 17 68 547 145 1177 77 630 143
1164 146 1188 l6 42 187 0 c102 0 215 -5 250 -10 116 -19 193 -75 241 -175 10
-22 177 -472 370 -1000 193 -528 362 -983 375 -1012 49 -109 151 -188 291
-223 73 -19 112 -20 787 -20 610 0 708 2 704 14 -61 157 -960 2321 -985 2371
-46 89 -193 239 -310 314 l-82 54 72 32 c278 122 501 269 702 464 126 124 203
216 299 361 380 575 465 1407 202 1977 -87 189 -264 399 -444 527 -283 202
-653 332 -1121 393 -121 15 -262 17 -1317 20 -797 3 -1183 1 -1183 -6z m2135
-1109 c319 -70 522 -248 596 -522 26 -97 36 -322 20 -457 -14 -119 -53 -279
-87 -364 -127 -314 -401 -527 -764 -594 -137 -26 -810 -35 -810 -12 0 9 54
452 120 985 66 533 120 975 120 982 0 10 75 11 358 7 307 -4 370 -8 447 -25z"/>
<path d="M71000 22272 c0 -4 -106 -887 -235 -1962 -129 -1075 -240 -2016 -246
-2090 -16 -182 -6 -518 20 -686 60 -397 200 -751 408 -1033 74 -100 248 -278
348 -356 333 -260 746 -413 1236 -456 167 -15 550 -6 709 16 1208 167 2120
1017 2424 2258 53 214 82 434 311 2307 129 1059 238 1944 241 1968 l6 42 -733
-2 -734 -3 -197 -1610 c-289 -2369 -296 -2420 -324 -2545 -94 -416 -300 -777
-556 -973 -225 -172 -434 -241 -728 -240 -238 0 -383 40 -546 149 -306 203
-461 633 -425 1177 7 107 463 3892 485 4025 l3 22 -733 0 c-404 0 -734 -4
-734 -8z"/>
<path d="M77060 22270 c0 -5 -178 -1465 -395 -3244 -217 -1779 -395 -3244
-395 -3255 0 -21 0 -21 725 -21 l724 0 6 33 c2 17 61 496 130 1062 69 567 128
1047 131 1068 l6 37 457 0 c252 0 516 5 587 10 443 36 801 128 1139 294 255
126 425 246 607 430 332 335 530 769 614 1341 25 171 26 608 1 750 -48 272
-140 522 -260 700 -310 462 -847 731 -1587 795 -154 13 -2490 13 -2490 0z
m2165 -1090 c127 -15 197 -35 300 -85 252 -123 382 -332 416 -672 14 -135 0
-364 -32 -530 -97 -504 -404 -785 -910 -832 -121 -12 -869 -15 -869 -5 0 4 59
480 130 1059 72 578 130 1057 130 1063 0 15 705 16 835 2z"/>
<path d="M16685 14105 c-139 -30 -249 -90 -342 -188 -111 -116 -157 -229 -157
-392 -1 -177 39 -282 148 -390 95 -95 154 -122 452 -214 135 -42 210 -82 247
-133 25 -34 33 -118 18 -176 -24 -87 -93 -136 -213 -148 -115 -11 -190 13
-408 132 -69 38 -108 41 -154 11 -11 -8 -54 -67 -95 -131 -84 -134 -85 -125
19 -196 265 -180 640 -231 905 -124 184 75 320 233 372 434 25 97 22 257 -6
339 -65 189 -191 284 -516 390 -190 61 -254 92 -299 141 -33 37 -36 45 -36
101 0 117 67 181 208 195 87 9 165 -10 289 -71 62 -30 126 -55 142 -55 46 0
83 41 151 165 l60 110 -38 33 c-80 72 -231 138 -382 166 -99 19 -281 20 -365
1z"/>
<path d="M27585 14105 c-139 -30 -249 -90 -342 -188 -111 -116 -157 -229 -157
-392 -1 -177 39 -282 148 -390 95 -95 154 -122 452 -214 135 -42 210 -82 247
-133 25 -34 33 -118 18 -176 -24 -87 -93 -136 -213 -148 -115 -11 -190 13
-408 132 -69 38 -108 41 -154 11 -11 -8 -54 -67 -95 -131 -84 -134 -85 -125
19 -196 265 -180 640 -231 905 -124 184 75 320 233 372 434 25 97 22 257 -6
339 -65 189 -191 284 -516 390 -190 61 -254 92 -299 141 -33 37 -36 45 -36
101 0 117 67 181 208 195 87 9 165 -10 289 -71 62 -30 126 -55 142 -55 46 0
83 41 151 165 l60 110 -38 33 c-80 72 -231 138 -382 166 -99 19 -281 20 -365
1z"/>
<path d="M33495 14105 c-139 -30 -249 -90 -342 -188 -111 -116 -157 -229 -157
-392 -1 -177 39 -282 148 -390 95 -95 154 -122 452 -214 135 -42 210 -82 247
-133 25 -34 33 -118 18 -176 -24 -87 -93 -136 -213 -148 -115 -11 -190 13
-408 132 -69 38 -108 41 -154 11 -11 -8 -54 -67 -95 -131 -84 -134 -85 -125
19 -196 265 -180 640 -231 905 -124 184 75 320 233 372 434 25 97 22 257 -6
339 -65 189 -191 284 -516 390 -190 61 -254 92 -299 141 -33 37 -36 45 -36
101 0 117 67 181 208 195 87 9 165 -10 289 -71 62 -30 126 -55 142 -55 46 0
83 41 151 165 l60 110 -38 33 c-80 72 -231 138 -382 166 -99 19 -281 20 -365
1z"/>
<path d="M34965 14105 c-139 -30 -249 -90 -342 -188 -111 -116 -157 -229 -157
-392 -1 -177 39 -282 148 -390 95 -95 154 -122 452 -214 135 -42 210 -82 247
-133 25 -34 33 -118 18 -176 -24 -87 -93 -136 -213 -148 -115 -11 -190 13
-408 132 -69 38 -108 41 -154 11 -11 -8 -54 -67 -95 -131 -84 -134 -85 -125
19 -196 265 -180 640 -231 905 -124 184 75 320 233 372 434 25 97 22 257 -6
339 -65 189 -191 284 -516 390 -190 61 -254 92 -299 141 -33 37 -36 45 -36
101 0 117 67 181 208 195 87 9 165 -10 289 -71 62 -30 126 -55 142 -55 46 0
83 41 151 165 l60 110 -38 33 c-80 72 -231 138 -382 166 -99 19 -281 20 -365
1z"/>
<path d="M65695 14105 c-139 -30 -249 -90 -342 -188 -111 -116 -157 -229 -157
-392 -1 -177 39 -282 148 -390 95 -95 154 -122 452 -214 135 -42 210 -82 247
-133 25 -34 33 -118 18 -176 -24 -87 -93 -136 -213 -148 -115 -11 -190 13
-408 132 -69 38 -108 41 -154 11 -11 -8 -54 -67 -95 -131 -84 -134 -85 -125
19 -196 265 -180 640 -231 905 -124 184 75 320 233 372 434 25 97 22 257 -6
339 -65 189 -191 284 -516 390 -190 61 -254 92 -299 141 -33 37 -36 45 -36
101 0 117 67 181 208 195 87 9 165 -10 289 -71 62 -30 126 -55 142 -55 46 0
83 41 151 165 l60 110 -38 33 c-80 72 -231 138 -382 166 -99 19 -281 20 -365
1z"/>
<path d="M77647 14105 c-401 -76 -685 -339 -788 -733 -27 -100 -36 -309 -19
-423 51 -351 268 -635 588 -769 142 -60 228 -75 432 -74 168 0 194 3 285 27
362 97 610 348 707 713 20 77 23 112 23 264 0 152 -3 187 -23 264 -80 299
-261 523 -527 647 -142 67 -253 91 -440 95 -113 2 -183 -1 -238 -11z m383
-391 c199 -59 326 -214 366 -444 19 -110 14 -276 -11 -377 -54 -224 -212 -372
-430 -403 -263 -37 -483 66 -580 272 -57 120 -69 184 -69 348 0 163 13 229 68
345 72 151 197 243 374 275 66 12 216 4 282 -16z"/>
<path d="M14263 13443 c3 -641 4 -660 25 -743 13 -47 43 -128 69 -180 39 -80
59 -108 137 -186 77 -76 106 -98 186 -137 153 -76 224 -91 430 -91 152 -1 186
2 260 22 284 77 476 262 562 544 22 72 22 82 26 751 l3 677 -231 0 -230 0 0
-633 c0 -684 0 -689 -55 -797 -35 -68 -87 -117 -164 -153 -59 -28 -76 -31
-161 -32 -113 0 -173 18 -244 73 -26 20 -63 62 -82 92 -64 105 -64 106 -64
812 l0 638 -236 0 -235 0 4 -657z"/>
<path d="M19340 13110 l0 -990 640 0 640 0 0 175 0 175 -405 0 -405 0 0 235 0
235 310 0 310 0 0 170 0 170 -310 0 -310 0 0 235 0 235 405 0 405 0 0 175 0
175 -640 0 -640 0 0 -990z"/>
<path d="M20870 13111 l0 -991 444 0 c345 0 462 3 528 15 427 74 714 346 804
761 23 107 23 321 0 428 -82 379 -333 640 -711 743 l-100 27 -482 4 -483 3 0
-990z m935 617 c143 -42 251 -134 315 -270 49 -105 70 -207 70 -348 0 -324
-138 -545 -385 -618 -33 -9 -119 -16 -257 -19 l-208 -5 0 642 0 642 208 -5
c138 -3 224 -10 257 -19z"/>
<path d="M23400 13111 l0 -991 458 0 c409 0 467 2 547 19 123 26 193 54 281
113 160 107 244 267 244 464 0 202 -96 333 -294 403 l-75 27 71 34 c185 89
278 261 250 460 -33 233 -154 355 -421 428 l-96 26 -482 4 -483 3 0 -990z
m915 614 c82 -42 105 -87 105 -204 0 -201 -83 -250 -417 -251 l-143 0 0 246 0
246 199 -4 c197 -3 199 -4 256 -33z m-68 -775 c164 -18 227 -80 226 -220 0
-122 -39 -188 -137 -231 -47 -21 -69 -24 -263 -27 l-213 -4 0 246 0 246 153 0
c83 0 189 -4 234 -10z"/>
<path d="M25153 13443 c3 -641 4 -660 25 -743 13 -47 43 -128 69 -180 39 -80
59 -108 137 -186 77 -76 106 -98 186 -137 153 -76 224 -91 430 -91 152 -1 186
2 260 22 284 77 476 262 562 544 22 72 22 82 26 751 l3 677 -231 0 -230 0 0
-633 c0 -684 0 -689 -55 -797 -35 -68 -87 -117 -164 -153 -59 -28 -76 -31
-161 -32 -113 0 -173 18 -244 73 -26 20 -63 62 -82 92 -64 105 -64 106 -64
812 l0 638 -236 0 -235 0 4 -657z"/>
<path d="M28660 13110 l0 -990 235 0 235 0 0 990 0 990 -235 0 -235 0 0 -990z"/>
<path d="M29480 13110 l0 -990 206 0 205 0 -3 620 c-2 340 0 616 3 612 3 -4
218 -275 477 -603 414 -523 477 -599 512 -613 31 -12 75 -16 185 -16 l145 0 0
990 0 990 -205 0 -206 0 3 -620 c2 -462 0 -616 -8 -607 -7 7 -209 262 -450
567 -241 305 -451 571 -467 590 -54 64 -74 70 -244 70 l-153 0 0 -990z"/>
<path d="M31530 13110 l0 -990 640 0 640 0 0 175 0 175 -405 0 -405 0 0 235 0
235 310 0 310 0 0 170 0 170 -310 0 -310 0 0 235 0 235 405 0 405 0 0 175 0
175 -640 0 -640 0 0 -990z"/>
<path d="M36520 13111 l0 -991 230 0 230 0 0 330 0 330 184 0 c340 0 525 57
676 209 118 118 171 260 172 456 2 323 -165 534 -490 623 -97 26 -97 26 -549
30 l-453 3 0 -990z m855 624 c68 -25 137 -96 160 -164 25 -76 18 -218 -14
-281 -65 -128 -147 -160 -403 -160 l-138 0 0 316 0 316 173 -4 c132 -4 184 -9
222 -23z"/>
<path d="M38615 14066 c-28 -66 -747 -1931 -748 -1941 -3 -15 348 -19 400 -4
70 19 88 49 158 250 l63 184 374 3 373 2 63 -188 c88 -265 83 -262 375 -262
176 0 189 1 183 18 -47 129 -752 1950 -759 1960 -7 9 -67 12 -239 12 l-229 0
-14 -34z m510 -1178 c7 -17 -9 -18 -259 -18 -213 0 -266 3 -266 13 0 7 51 161
113 343 62 181 119 352 127 379 7 28 15 54 17 58 3 4 62 -164 133 -375 70
-211 131 -391 135 -400z"/>
<path d="M43350 13110 l0 -990 206 0 205 0 -3 620 c-2 340 0 616 3 612 3 -4
218 -275 477 -603 414 -523 477 -599 512 -613 31 -12 75 -16 185 -16 l145 0 0
990 0 990 -205 0 -206 0 3 -620 c2 -462 0 -616 -8 -607 -7 7 -209 262 -450
567 -241 305 -451 571 -467 590 -54 64 -74 70 -244 70 l-153 0 0 -990z"/>
<path d="M45400 13110 l0 -990 640 0 640 0 0 175 0 175 -405 0 -405 0 0 235 0
235 310 0 310 0 0 170 0 170 -310 0 -310 0 0 235 0 235 405 0 405 0 0 175 0
175 -640 0 -640 0 0 -990z"/>
<path d="M49855 14066 c-28 -66 -747 -1931 -748 -1941 -3 -15 348 -19 400 -4
70 19 88 49 158 250 l63 184 374 3 373 2 63 -188 c88 -265 83 -262 375 -262
176 0 189 1 183 18 -47 129 -752 1950 -759 1960 -7 9 -67 12 -239 12 l-229 0
-14 -34z m510 -1178 c7 -17 -9 -18 -259 -18 -213 0 -266 3 -266 13 0 7 51 161
113 343 62 181 119 352 127 379 7 28 15 54 17 58 3 4 62 -164 133 -375 70
-211 131 -391 135 -400z"/>
<path d="M51250 13110 l0 -990 206 0 205 0 -3 620 c-2 340 0 616 3 612 3 -4
218 -275 477 -603 414 -523 477 -599 512 -613 31 -12 75 -16 185 -16 l145 0 0
990 0 990 -205 0 -206 0 3 -620 c2 -462 0 -616 -8 -607 -7 7 -209 262 -450
567 -241 305 -451 571 -467 590 -54 64 -74 70 -244 70 l-153 0 0 -990z"/>
<path d="M53300 13111 l0 -991 444 0 c345 0 462 3 528 15 427 74 714 346 804
761 23 107 23 321 0 428 -82 379 -333 640 -711 743 l-100 27 -482 4 -483 3 0
-990z m935 617 c143 -42 251 -134 315 -270 49 -105 70 -207 70 -348 0 -324
-138 -545 -385 -618 -33 -9 -119 -16 -257 -19 l-208 -5 0 642 0 642 208 -5
c138 -3 224 -10 257 -19z"/>
<path d="M56425 14066 c-28 -66 -747 -1931 -748 -1941 -3 -15 348 -19 400 -4
70 19 88 49 158 250 l63 184 374 3 373 2 63 -188 c88 -265 83 -262 375 -262
176 0 189 1 183 18 -47 129 -752 1950 -759 1960 -7 9 -67 12 -239 12 l-229 0
-14 -34z m510 -1178 c7 -17 -9 -18 -259 -18 -213 0 -266 3 -266 13 0 7 51 161
113 343 62 181 119 352 127 379 7 28 15 54 17 58 3 4 62 -164 133 -375 70
-211 131 -391 135 -400z"/>
<path d="M57830 13110 l0 -990 595 0 595 0 0 185 0 185 -365 0 -365 0 0 805 0
805 -230 0 -230 0 0 -990z"/>
<path d="M58855 14058 c26 -88 576 -1874 586 -1905 l11 -33 208 0 209 0 35
113 c19 61 107 348 196 637 192 628 181 592 185 588 4 -3 405 -1325 405 -1333
0 -3 95 -4 211 -3 l211 3 304 985 c167 542 304 986 304 988 0 1 -91 2 -202 2
-221 0 -251 -6 -289 -60 -16 -22 -257 -915 -314 -1165 -13 -55 -25 -93 -28
-85 -3 8 -87 285 -187 615 -101 330 -190 613 -199 629 -29 52 -72 66 -201 66
-125 0 -167 -13 -202 -61 -15 -21 -306 -947 -370 -1176 -22 -81 -38 -106 -38
-60 0 41 -311 1212 -329 1237 -38 54 -67 60 -303 60 l-216 0 13 -42z"/>
<path d="M62295 14066 c-28 -66 -747 -1931 -748 -1941 -3 -15 348 -19 400 -4
70 19 88 49 158 250 l63 184 374 3 373 2 63 -188 c88 -265 83 -262 375 -262
176 0 189 1 183 18 -47 129 -752 1950 -759 1960 -7 9 -67 12 -239 12 l-229 0
-14 -34z m510 -1178 c7 -17 -9 -18 -259 -18 -213 0 -266 3 -266 13 0 7 51 161
113 343 62 181 119 352 127 379 7 28 15 54 17 58 3 4 62 -164 133 -375 70
-211 131 -391 135 -400z"/>
<path d="M63329 13948 c49 -84 211 -362 360 -618 l271 -464 0 -373 0 -373 230
0 230 0 0 377 0 377 353 604 c193 333 354 609 355 614 2 4 -96 8 -218 8 -250
0 -273 -5 -315 -69 -28 -42 -395 -805 -395 -821 0 -19 -19 -10 -26 12 -3 12
-92 197 -196 412 -134 278 -199 401 -224 426 l-34 35 -240 3 -240 3 89 -153z"/>
<path d="M67115 14058 c26 -88 576 -1874 586 -1905 l11 -33 208 0 209 0 35
113 c19 61 107 348 196 637 192 628 181 592 185 588 4 -3 405 -1325 405 -1333
0 -3 95 -4 211 -3 l211 3 304 985 c167 542 304 986 304 988 0 1 -91 2 -202 2
-221 0 -251 -6 -289 -60 -16 -22 -257 -915 -314 -1165 -13 -55 -25 -93 -28
-85 -3 8 -87 285 -187 615 -101 330 -190 613 -199 629 -29 52 -72 66 -201 66
-125 0 -167 -13 -202 -61 -15 -21 -306 -947 -370 -1176 -22 -81 -38 -106 -38
-60 0 41 -311 1212 -329 1237 -38 54 -67 60 -303 60 l-216 0 13 -42z"/>
<path d="M70190 13110 l0 -990 235 0 235 0 0 990 0 990 -235 0 -235 0 0 -990z"/>
<path d="M72640 13110 l0 -990 235 0 235 0 0 420 0 420 395 0 395 0 0 -420 0
-420 235 0 235 0 0 990 0 990 -235 0 -235 0 0 -415 0 -415 -395 0 -395 0 0
415 0 415 -235 0 -235 0 0 -990z"/>
<path d="M75109 13948 c49 -84 211 -362 360 -618 l271 -464 0 -373 0 -373 230
0 230 0 0 377 0 377 353 604 c193 333 354 609 355 614 2 4 -96 8 -218 8 -250
0 -273 -5 -315 -69 -28 -42 -395 -805 -395 -821 0 -19 -19 -10 -26 12 -3 12
-92 197 -196 412 -134 278 -199 401 -224 426 l-34 35 -240 3 -240 3 89 -153z"/>
<path d="M79073 13443 c3 -641 4 -660 25 -743 13 -47 43 -128 69 -180 39 -80
59 -108 137 -186 77 -76 106 -98 186 -137 153 -76 224 -91 430 -91 152 -1 186
2 260 22 284 77 476 262 562 544 22 72 22 82 26 751 l3 677 -231 0 -230 0 0
-633 c0 -684 0 -689 -55 -797 -35 -68 -87 -117 -164 -153 -59 -28 -76 -31
-161 -32 -113 0 -173 18 -244 73 -26 20 -63 62 -82 92 -64 105 -64 106 -64
812 l0 638 -236 0 -235 0 4 -657z"/>
<path d="M10800 13910 l0 -180 280 0 280 0 2 -807 3 -808 228 -3 227 -2 0 810
0 810 280 0 280 0 0 180 0 180 -790 0 -790 0 0 -180z"/>
<path d="M12570 13106 l0 -986 230 0 230 0 0 366 0 366 89 -4 c71 -2 95 -7
117 -23 16 -12 98 -144 201 -325 96 -168 186 -317 201 -333 41 -43 77 -48 323
-45 l226 3 -214 350 c-208 339 -266 420 -327 452 l-30 15 60 30 c153 76 261
200 310 357 24 74 29 234 10 314 -51 216 -191 344 -453 414 -98 27 -99 27
-535 31 l-438 3 0 -985z m750 633 c166 -27 252 -137 237 -303 -11 -111 -59
-187 -149 -232 -55 -28 -163 -44 -295 -44 l-83 0 0 295 0 295 113 0 c61 0 141
-5 177 -11z"/>
<path d="M17580 13910 l0 -180 280 0 280 0 2 -807 3 -808 228 -3 227 -2 0 810
0 810 280 0 280 0 0 180 0 180 -790 0 -790 0 0 -180z"/>
<path d="M40010 13106 l0 -986 230 0 230 0 0 366 0 366 89 -4 c71 -2 95 -7
117 -23 16 -12 98 -144 201 -325 96 -168 186 -317 201 -333 41 -43 77 -48 323
-45 l226 3 -214 350 c-208 339 -266 420 -327 452 l-30 15 60 30 c153 76 261
200 310 357 24 74 29 234 10 314 -51 216 -191 344 -453 414 -98 27 -99 27
-535 31 l-438 3 0 -985z m750 633 c166 -27 252 -137 237 -303 -11 -111 -59
-187 -149 -232 -55 -28 -163 -44 -295 -44 l-83 0 0 295 0 295 113 0 c61 0 141
-5 177 -11z"/>
<path d="M41590 13910 l0 -180 280 0 280 0 2 -807 3 -808 228 -3 227 -2 0 810
0 810 280 0 280 0 0 180 0 180 -790 0 -790 0 0 -180z"/>
<path d="M46930 13106 l0 -986 230 0 230 0 0 366 0 366 89 -4 c71 -2 95 -7
117 -23 16 -12 98 -144 201 -325 96 -168 186 -317 201 -333 41 -43 77 -48 323
-45 l226 3 -214 350 c-208 339 -266 420 -327 452 l-30 15 60 30 c153 76 261
200 310 357 24 74 29 234 10 314 -51 216 -191 344 -453 414 -98 27 -99 27
-535 31 l-438 3 0 -985z m750 633 c166 -27 252 -137 237 -303 -11 -111 -59
-187 -149 -232 -55 -28 -163 -44 -295 -44 l-83 0 0 295 0 295 113 0 c61 0 141
-5 177 -11z"/>
<path d="M70880 13910 l0 -180 280 0 280 0 2 -807 3 -808 228 -3 227 -2 0 810
0 810 280 0 280 0 0 180 0 180 -790 0 -790 0 0 -180z"/>
</g>
</svg>
